<svg width="726" height="210.50148811086052" id="svg113" version="1.1" xmlns="http://www.w3.org/2000/svg"><g transform="translate(0,-353.4985118891395)"><text class="token" id="1" x="0" y="482">13</text><text class="token" id="2" x="55" y="482">11</text><text class="token" id="3" x="110" y="482">10</text><text class="token" id="4" x="165" y="482">15</text><text class="token" id="5" x="220" y="482">6</text><text class="token" id="6" x="264" y="482">4</text><text class="token" id="7" x="308" y="482">12</text><text class="token" id="8" x="363" y="482">14</text><text class="token" id="9" x="418" y="482">8</text><text class="token" id="10" x="462" y="482">7</text><text class="token" id="11" x="506" y="482">1</text><text class="token" id="12" x="550" y="482">5</text><text class="token" id="13" x="594" y="482">2</text><text class="token" id="14" x="638" y="482">3</text><text class="token" id="15" x="682" y="482">9</text><path class="curve" d="M58,464 C58,426.5 11,426.5 11,462"></path><path class="arrowhead" d="M11,464c0,0-2.5,-7.5 -2.5,-7.5c2.5,2.5 2.5,2.5 5,0z"></path><text class="deprel" x="23" y="432.6198623708723">unk</text><path class="curve" d="M113,464 C113,426.5 66,426.5 66,462"></path><path class="arrowhead" d="M66,464c0,0-2.5,-7.5 -2.5,-7.5c2.5,2.5 2.5,2.5 5,0z"></path><text class="deprel" x="78" y="432.6198623708723">unk</text><path class="curve" d="M261.5,464 C261.5,381.75 121,381.75 121,462"></path><path class="arrowhead" d="M121,464c0,0-2.5,-7.5 -2.5,-7.5c2.5,2.5 2.5,2.5 5,0z"></path><text class="deprel" x="179.75" y="399.0601922494277">unk</text><path class="curve" d="M129,464 C129,426.5 176,426.5 176,462"></path><path class="arrowhead" d="M176,464c0,0-2.5,-7.5 -2.5,-7.5c2.5,2.5 2.5,2.5 5,0z"></path><text class="deprel" x="141" y="432.6198623708723">unk</text><path class="curve" d="M261.5,464 C261.5,432 225.5,432 225.5,462"></path><path class="arrowhead" d="M225.5,464c0,0-2.5,-7.5 -2.5,-7.5c2.5,2.5 2.5,2.5 5,0z"></path><text class="deprel" x="232" y="436.7439505635192">unk</text><path class="curve" d="M503.5,464 C503.5,337 269.5,337 269.5,462"></path><path class="arrowhead" d="M269.5,464c0,0-2.5,-7.5 -2.5,-7.5c2.5,2.5 2.5,2.5 5,0z"></path><text class="deprel" x="375" y="365.4985118891395">unk</text><path class="curve" d="M277.5,464 C277.5,429.25 319,429.25 319,462"></path><path class="arrowhead" d="M319,464c0,0-2.5,-7.5 -2.5,-7.5c2.5,2.5 2.5,2.5 5,0z"></path><text class="deprel" x="286.75" y="434.6819436312925">unk</text><path class="curve" d="M327,464 C327,426.5 374,426.5 374,462"></path><path class="arrowhead" d="M374,464c0,0-2.5,-7.5 -2.5,-7.5c2.5,2.5 2.5,2.5 5,0z"></path><text class="deprel" x="339" y="432.6198623708723">unk</text><path class="curve" d="M459.5,464 C459.5,432 423.5,432 423.5,462"></path><path class="arrowhead" d="M423.5,464c0,0-2.5,-7.5 -2.5,-7.5c2.5,2.5 2.5,2.5 5,0z"></path><text class="deprel" x="430" y="436.7439505635192">unk</text><path class="curve" d="M503.5,464 C503.5,432 467.5,432 467.5,462"></path><path class="arrowhead" d="M467.5,464c0,0-2.5,-7.5 -2.5,-7.5c2.5,2.5 2.5,2.5 5,0z"></path><text class="deprel" x="474" y="436.7439505635192">unk</text><path class="curve" d="M511.5,462L511.5,0"></path><path class="arrowhead" d="M511.5,464c0,0-2.5,-7.5 -2.5,-7.5c2.5,2.5 2.5,2.5 5,0z"></path><path class="curve" d="M519.5,464 C519.5,432 555.5,432 555.5,462"></path><path class="arrowhead" d="M555.5,464c0,0-2.5,-7.5 -2.5,-7.5c2.5,2.5 2.5,2.5 5,0z"></path><text class="deprel" x="526" y="436.7439505635192">unk</text><path class="curve" d="M519.5,464 C519.5,411 599.5,411 599.5,462"></path><path class="arrowhead" d="M599.5,464c0,0-2.5,-7.5 -2.5,-7.5c2.5,2.5 2.5,2.5 5,0z"></path><text class="deprel" x="548" y="420.9963940084893">unk</text><path class="curve" d="M607.5,464 C607.5,432 643.5,432 643.5,462"></path><path class="arrowhead" d="M643.5,464c0,0-2.5,-7.5 -2.5,-7.5c2.5,2.5 2.5,2.5 5,0z"></path><text class="deprel" x="614" y="436.7439505635192">unk</text><path class="curve" d="M651.5,464 C651.5,432 687.5,432 687.5,462"></path><path class="arrowhead" d="M687.5,464c0,0-2.5,-7.5 -2.5,-7.5c2.5,2.5 2.5,2.5 5,0z"></path><text class="deprel" x="658" y="436.7439505635192">unk</text><text class="lemma" id="1" x="0" y="507">_</text><text class="lemma" id="2" x="55" y="507">_</text><text class="lemma" id="3" x="110" y="507">_</text><text class="lemma" id="4" x="165" y="507">_</text><text class="lemma" id="5" x="220" y="507">_</text><text class="lemma" id="6" x="264" y="507">_</text><text class="lemma" id="7" x="308" y="507">_</text><text class="lemma" id="8" x="363" y="507">_</text><text class="lemma" id="9" x="418" y="507">_</text><text class="lemma" id="10" x="462" y="507">_</text><text class="lemma" id="11" x="506" y="507">_</text><text class="lemma" id="12" x="550" y="507">_</text><text class="lemma" id="13" x="594" y="507">_</text><text class="lemma" id="14" x="638" y="507">_</text><text class="lemma" id="15" x="682" y="507">_</text><text class="postag" id="1" x="0" y="528">_</text><text class="postag" id="2" x="55" y="528">_</text><text class="postag" id="3" x="110" y="528">_</text><text class="postag" id="4" x="165" y="528">_</text><text class="postag" id="5" x="220" y="528">_</text><text class="postag" id="6" x="264" y="528">_</text><text class="postag" id="7" x="308" y="528">_</text><text class="postag" id="8" x="363" y="528">_</text><text class="postag" id="9" x="418" y="528">_</text><text class="postag" id="10" x="462" y="528">_</text><text class="postag" id="11" x="506" y="528">_</text><text class="postag" id="12" x="550" y="528">_</text><text class="postag" id="13" x="594" y="528">_</text><text class="postag" id="14" x="638" y="528">_</text><text class="postag" id="15" x="682" y="528">_</text></g><style>.token {  font: 18px DejaVu Sans;  fill: black;  font-family:sans-serif;   text-align: center; }   .lemma {  font: 15px DejaVu Sans;  fill: black;  font-family:sans-serif;  text-align: center;  font-style: italic; }   .postag {  font: 11px DejaVu Sans;  fill: #E03737;   text-align: center; }   .deprel {  font: 12px Arial;  fill: #1d2ec1;  font-style: oblique;  font-family:sans-serif;  }   .arrowhead {  fill: white;  stroke: black;  stroke-width: .8; }  .curve {  stroke: black;  stroke-width: 1;  fill: none;}</style><style>.token {  font: 18px DejaVu Sans;  fill: black;  font-family:sans-serif;   text-align: center; }   .lemma {  font: 15px DejaVu Sans;  fill: black;  font-family:sans-serif;  text-align: center;  font-style: italic; }   .postag {  font: 11px DejaVu Sans;  fill: #E03737;   text-align: center; }   .deprel {  font: 12px Arial;  fill: #1d2ec1;  font-style: oblique;  font-family:sans-serif;  }   .arrowhead {  fill: white;  stroke: black;  stroke-width: .8; }  .curve {  stroke: black;  stroke-width: 1;  fill: none;     .arboratorlogo {  transition: all 0.4s ease-in-out;  -webkit-transition: all 0.4s ease-in-out;   }    .arboratorlogo:hover {  transform: scale(1.1);     transition: all 0.2s ease-in-out;  -webkit-transition: all 0.2s ease-in-out;  opacity: .9;   }   .svgbox {   overflow-x: auto;  }" width="1140" height="470.1878970357652"</style></svg>